# xmcd
#
# Track frame offsets:
#	150
#	13095
#	30470
#	45127
#	61610
#	78914
#	94018
#	111240
#	124351
#	141698
#	160971
#	179000
#
# Disc length: 2576 seconds
#
# Revision: 1
# Processed by: cddbd v1.5.1PL0 Copyright (c) Steve Scherf et al.
# Submitted via: audiograbber 1.82.02
#
DISCID=9b0a0e0c
DTITLE=Adam Harvey - Workin' Overtime
DYEAR=2002
DGENRE=Country
TTITLE0=Adam Harvey - The House That Jack Built
TTITLE1=Adam Harvey - One and One and One
TTITLE2=Adam Harvey - She's Gone, Gone, Gone
TTITLE3=Adam Harvey - Workin' Overtime (On A Good Time)
TTITLE4=Adam Harvey - The Shake Of A Hand
TTITLE5=Adam Harvey - Two-Steppin' Fool
TTITLE6=Adam Harvey - What It Used To Be
TTITLE7=Adam Harvey - Beauty's In The Eye (Of The Beerholder)
TTITLE8=Adam Harvey - Boats To Build
TTITLE9=Adam Harvey - I'll Drink To That
TTITLE10=Adam Harvey - One Of A Kind
TTITLE11=Adam Harvey - Little Bitty Thing Called Love
EXTD=
EXTT0=
EXTT1=
EXTT2=
EXTT3=
EXTT4=
EXTT5=
EXTT6=
EXTT7=
EXTT8=
EXTT9=
EXTT10=
EXTT11=
PLAYORDER=
